<svg width="102" height="27" viewBox="0 0 102 27" fill="none" xmlns="http://www.w3.org/2000/svg">
<path d="M0 6.79539H2.64112V12.9855H10.9497V6.79539H13.5908V21.3766H10.9497V15.269H2.64112V21.3766H0V6.79539Z" fill="black"/>
<path d="M24.9714 21.5417C23.5224 21.5417 22.2202 21.2207 21.0647 20.5788C19.9092 19.9368 19.0013 19.0564 18.3411 17.9376C17.6991 16.8005 17.3782 15.5166 17.3782 14.086C17.3782 12.6554 17.6991 11.3807 18.3411 10.2619C19.0013 9.12471 19.9092 8.24434 21.0647 7.62074C22.2202 6.9788 23.5224 6.65783 24.9714 6.65783C26.4203 6.65783 27.7134 6.9788 28.8505 7.62074C30.006 8.24434 30.9047 9.12471 31.5467 10.2619C32.207 11.3807 32.5371 12.6554 32.5371 14.086C32.5371 15.5166 32.207 16.8005 31.5467 17.9376C30.9047 19.0564 30.006 19.9368 28.8505 20.5788C27.7134 21.2207 26.4203 21.5417 24.9714 21.5417ZM24.9714 19.2307C25.9068 19.2307 26.7413 19.0198 27.475 18.5979C28.2269 18.1577 28.8139 17.5525 29.2357 16.7821C29.6575 15.9935 29.8685 15.0948 29.8685 14.086C29.8685 13.0772 29.6575 12.1877 29.2357 11.4174C28.8139 10.6287 28.2269 10.0234 27.475 9.60158C26.7413 9.17974 25.9068 8.96881 24.9714 8.96881C24.036 8.96881 23.1923 9.17974 22.4403 9.60158C21.7067 10.0234 21.1197 10.6287 20.6796 11.4174C20.2577 12.1877 20.0468 13.0772 20.0468 14.086C20.0468 15.0948 20.2577 15.9935 20.6796 16.7821C21.1197 17.5525 21.7067 18.1577 22.4403 18.5979C23.1923 19.0198 24.036 19.2307 24.9714 19.2307Z" fill="black"/>
<path d="M47.5598 6.79539V21.3766H45.1938V16.7546H40.957H40.6543L37.463 21.3766H34.6293L38.1783 16.397C37.0778 16.0668 36.2341 15.5258 35.6472 14.7738C35.0603 14.0035 34.7668 13.0497 34.7668 11.9126C34.7668 10.2435 35.3354 8.97799 36.4726 8.11595C37.6097 7.23558 39.1779 6.79539 41.1771 6.79539H47.5598ZM37.463 11.9951C37.463 12.9672 37.7656 13.6917 38.3709 14.1685C38.9945 14.6271 39.9207 14.8563 41.1496 14.8563H45.1938V9.10637H41.2596C38.7285 9.10637 37.463 10.0693 37.463 11.9951Z" fill="black"/>
<path d="M60.141 7.2906C61.4983 7.2906 62.7088 7.59323 63.7726 8.19849C64.8363 8.80374 65.6617 9.64744 66.2486 10.7296C66.8539 11.7934 67.1565 13.013 67.1565 14.3886C67.1565 15.8009 66.8355 17.0573 66.1936 18.1577C65.57 19.2399 64.6804 20.0835 63.525 20.6888C62.3878 21.2941 61.0856 21.5967 59.6183 21.5967C57.1422 21.5967 55.2256 20.753 53.8683 19.0656C52.5294 17.3599 51.86 14.9664 51.86 11.8851C51.86 8.89545 52.4744 6.55696 53.7033 4.86957C54.9321 3.16385 56.8121 2.03587 59.3432 1.48563L66.001 0L66.3862 2.42103L60.2511 3.74159C58.3436 4.16344 56.9221 4.87874 55.9867 5.8875C55.0513 6.89627 54.5195 8.34522 54.3911 10.2344C55.0147 9.29895 55.8217 8.57448 56.8121 8.06093C57.8025 7.54738 58.9122 7.2906 60.141 7.2906ZM59.6733 19.3958C60.6087 19.3958 61.4341 19.1848 62.1494 18.763C62.883 18.3411 63.4516 17.7634 63.8551 17.0297C64.2586 16.2778 64.4604 15.4249 64.4604 14.4712C64.4604 13.0222 64.0202 11.8575 63.1398 10.9772C62.2594 10.0968 61.1039 9.65661 59.6733 9.65661C58.2427 9.65661 57.078 10.0968 56.1793 10.9772C55.299 11.8575 54.8588 13.0222 54.8588 14.4712C54.8588 15.4249 55.0605 16.2778 55.464 17.0297C55.8859 17.7634 56.4636 18.3411 57.1973 18.763C57.9309 19.1848 58.7563 19.3958 59.6733 19.3958Z" fill="black"/>
<path d="M78.6594 6.65783C80.0717 6.65783 81.3372 6.96963 82.456 7.59323C83.5748 8.21683 84.446 9.08803 85.0696 10.2068C85.7116 11.3257 86.0325 12.6187 86.0325 14.086C86.0325 15.5533 85.7116 16.8555 85.0696 17.9927C84.446 19.1115 83.5748 19.9827 82.456 20.6063C81.3372 21.2299 80.0717 21.5417 78.6594 21.5417C77.614 21.5417 76.651 21.3399 75.7707 20.9364C74.9086 20.5329 74.175 19.946 73.5697 19.1757V26.7139H70.9286V6.79539H73.4597V9.10637C74.0466 8.29936 74.7894 7.69411 75.6881 7.2906C76.5869 6.86875 77.5773 6.65783 78.6594 6.65783ZM78.4393 19.2307C79.3747 19.2307 80.2092 19.0198 80.9429 18.5979C81.6949 18.1577 82.2818 17.5525 82.7036 16.7821C83.1438 15.9935 83.3639 15.0948 83.3639 14.086C83.3639 13.0772 83.1438 12.1877 82.7036 11.4174C82.2818 10.6287 81.6949 10.0234 80.9429 9.60158C80.2092 9.17974 79.3747 8.96881 78.4393 8.96881C77.5222 8.96881 76.6877 9.18891 75.9357 9.6291C75.2021 10.0509 74.6152 10.647 74.175 11.4174C73.7532 12.1877 73.5422 13.0772 73.5422 14.086C73.5422 15.0948 73.7532 15.9935 74.175 16.7821C74.5968 17.5525 75.1838 18.1577 75.9357 18.5979C76.6877 19.0198 77.5222 19.2307 78.4393 19.2307Z" fill="black"/>
<path d="M101.079 6.79539V21.3766H98.7126V16.7546H94.4758H94.1732L90.9818 21.3766H88.1481L91.6972 16.397C90.5967 16.0668 89.753 15.5258 89.1661 14.7738C88.5792 14.0035 88.2857 13.0497 88.2857 11.9126C88.2857 10.2435 88.8543 8.97799 89.9914 8.11595C91.1286 7.23558 92.6967 6.79539 94.6959 6.79539H101.079ZM90.9818 11.9951C90.9818 12.9672 91.2845 13.6917 91.8897 14.1685C92.5133 14.6271 93.4396 14.8563 94.6684 14.8563H98.7126V9.10637H94.7785C92.2474 9.10637 90.9818 10.0693 90.9818 11.9951Z" fill="black"/>
</svg>
