<svg width="108" height="68" viewBox="0 0 108 68" fill="none" xmlns="http://www.w3.org/2000/svg">
<path d="M52.1017 53.8663V66.1255H2.97193V56.3739L28.0476 32.6913C30.71 30.1527 32.5055 27.9857 33.4343 26.1902C34.363 24.3327 34.8274 22.5062 34.8274 20.7107C34.8274 18.1102 33.9296 16.1289 32.134 14.7668C30.4004 13.3427 27.8309 12.6307 24.4256 12.6307C21.5775 12.6307 19.008 13.188 16.7171 14.3024C14.4263 15.355 12.5069 16.9648 10.959 19.1318L0 12.0735C2.53853 8.29665 6.03674 5.35567 10.4946 3.25055C14.9525 1.08351 20.0606 0 25.8187 0C30.6481 0 34.8583 0.804894 38.4494 2.41469C42.1024 3.96257 44.9195 6.19153 46.9008 9.10154C48.944 11.9496 49.9656 15.324 49.9656 19.2247C49.9656 22.7539 49.2227 26.0663 47.7367 29.1621C46.2507 32.2579 43.3717 35.787 39.0995 39.7496L24.147 53.8663H52.1017Z" fill="black"/>
<path d="M80.5992 25.5401C89.7627 25.5401 96.5114 27.3666 100.846 31.0196C105.241 34.6726 107.439 39.5639 107.439 45.6935C107.439 49.6561 106.449 53.2781 104.468 56.5596C102.486 59.7792 99.4524 62.3797 95.366 64.3609C91.3415 66.2803 86.3573 67.24 80.4135 67.24C75.8317 67.24 71.3119 66.6518 66.854 65.4754C62.458 64.2371 58.7121 62.5035 55.6164 60.2745L61.5602 48.7583C64.0369 50.6157 66.885 52.0708 70.1046 53.1233C73.3242 54.114 76.6366 54.6093 80.042 54.6093C83.8188 54.6093 86.7907 53.8663 88.9578 52.3803C91.1248 50.8944 92.2083 48.8202 92.2083 46.1579C92.2083 43.3717 91.0629 41.2665 88.772 39.8425C86.5431 38.4184 82.6424 37.7064 77.07 37.7064H60.4458L63.7892 1.11447H103.446V13.1879H76.327L75.3054 25.5401H80.5992Z" fill="black"/>
</svg>
