<?xml version="1.0" encoding="UTF-8"?>
<svg xmlns="http://www.w3.org/2000/svg" xmlns:xlink="http://www.w3.org/1999/xlink" width="32px" height="23px" viewBox="0 0 32 23" version="1.1">
<g id="surface1">
<path style=" stroke:none;fill-rule:nonzero;fill:rgb(100%,100%,100%);fill-opacity:1;" d="M 5.269531 22.886719 C 2.363281 22.886719 0 20.492188 0 17.550781 C 0 14.609375 2.363281 12.214844 5.269531 12.214844 C 8.175781 12.214844 10.539062 14.609375 10.539062 17.550781 C 10.539062 20.507812 8.175781 22.886719 5.269531 22.886719 Z M 5.269531 22.886719 "/>
<path style=" stroke:none;fill-rule:nonzero;fill:rgb(100%,100%,100%);fill-opacity:1;" d="M 5.269531 22.886719 C 2.363281 22.886719 0 20.492188 0 17.550781 C 0 14.609375 2.363281 12.214844 5.269531 12.214844 C 8.175781 12.214844 10.539062 14.609375 10.539062 17.550781 C 10.539062 20.507812 8.175781 22.886719 5.269531 22.886719 Z M 5.269531 22.886719 "/>
<path style=" stroke:none;fill-rule:nonzero;fill:rgb(100%,100%,100%);fill-opacity:1;" d="M 17.726562 0.59375 L 12.007812 10.050781 C 11.847656 10.324219 12.023438 10.664062 12.328125 10.664062 L 23.761719 10.664062 C 24.0625 10.664062 24.238281 10.308594 24.078125 10.050781 L 18.363281 0.59375 C 18.203125 0.351562 17.867188 0.351562 17.726562 0.59375 Z M 17.726562 0.59375 "/>
<path style=" stroke:none;fill-rule:nonzero;fill:rgb(100%,100%,100%);fill-opacity:1;" d="M 10.425781 2.195312 L 8.367188 0.109375 C 8.222656 -0.0351562 7.96875 -0.0351562 7.824219 0.109375 L 5.558594 2.40625 C 5.414062 2.550781 5.15625 2.550781 5.015625 2.40625 L 2.746094 0.109375 C 2.601562 -0.0351562 2.347656 -0.0351562 2.203125 0.109375 L 0.144531 2.195312 C 0 2.339844 0 2.597656 0.144531 2.742188 L 2.410156 5.039062 C 2.554688 5.183594 2.554688 5.445312 2.410156 5.589844 L 0.144531 7.882812 C 0 8.03125 0 8.289062 0.144531 8.433594 L 2.203125 10.519531 C 2.347656 10.664062 2.601562 10.664062 2.746094 10.519531 L 5.015625 8.222656 C 5.15625 8.078125 5.414062 8.078125 5.558594 8.222656 L 7.824219 10.519531 C 7.96875 10.664062 8.222656 10.664062 8.367188 10.519531 L 10.425781 8.433594 C 10.570312 8.289062 10.570312 8.03125 10.425781 7.882812 L 8.160156 5.589844 C 8.015625 5.445312 8.015625 5.183594 8.160156 5.039062 L 10.425781 2.742188 C 10.585938 2.597656 10.585938 2.355469 10.425781 2.195312 Z M 10.425781 2.195312 "/>
<path style=" stroke:none;fill-rule:nonzero;fill:rgb(100%,100%,100%);fill-opacity:1;" d="M 13.015625 15.902344 L 13.015625 16.582031 L 14.179688 16.582031 L 14.179688 17.050781 L 13.015625 17.050781 L 13.015625 17.972656 L 12.4375 17.972656 L 12.4375 15.433594 L 14.324219 15.433594 L 14.324219 15.902344 Z M 13.015625 15.902344 "/>
<path style=" stroke:none;fill-rule:nonzero;fill:rgb(100%,100%,100%);fill-opacity:1;" d="M 15.105469 17.710938 C 14.914062 17.519531 14.800781 17.226562 14.800781 16.855469 L 14.800781 15.433594 L 15.378906 15.433594 L 15.378906 16.824219 C 15.378906 17.277344 15.570312 17.503906 15.9375 17.503906 C 16.113281 17.503906 16.253906 17.453125 16.351562 17.339844 C 16.445312 17.226562 16.496094 17.066406 16.496094 16.824219 L 16.496094 15.433594 L 17.070312 15.433594 L 17.070312 16.855469 C 17.070312 17.226562 16.972656 17.519531 16.765625 17.710938 C 16.574219 17.90625 16.289062 18.019531 15.9375 18.019531 C 15.585938 18.019531 15.296875 17.90625 15.105469 17.710938 Z M 15.105469 17.710938 "/>
<path style=" stroke:none;fill-rule:nonzero;fill:rgb(100%,100%,100%);fill-opacity:1;" d="M 18.21875 15.917969 L 17.421875 15.917969 L 17.421875 15.433594 L 19.59375 15.433594 L 19.59375 15.917969 L 18.792969 15.917969 L 18.792969 17.972656 L 18.21875 17.972656 Z M 18.21875 15.917969 "/>
<path style=" stroke:none;fill-rule:nonzero;fill:rgb(100%,100%,100%);fill-opacity:1;" d="M 20.246094 17.710938 C 20.054688 17.519531 19.945312 17.226562 19.945312 16.855469 L 19.945312 15.433594 L 20.519531 15.433594 L 20.519531 16.824219 C 20.519531 17.277344 20.710938 17.503906 21.078125 17.503906 C 21.253906 17.503906 21.398438 17.453125 21.492188 17.339844 C 21.589844 17.226562 21.636719 17.066406 21.636719 16.824219 L 21.636719 15.433594 L 22.210938 15.433594 L 22.210938 16.855469 C 22.210938 17.226562 22.117188 17.519531 21.90625 17.710938 C 21.714844 17.90625 21.429688 18.019531 21.078125 18.019531 C 20.726562 18.019531 20.453125 17.90625 20.246094 17.710938 Z M 20.246094 17.710938 "/>
<path style=" stroke:none;fill-rule:nonzero;fill:rgb(100%,100%,100%);fill-opacity:1;" d="M 24.480469 17.972656 L 24 17.261719 L 23.457031 17.261719 L 23.457031 17.972656 L 22.882812 17.972656 L 22.882812 15.449219 L 23.96875 15.449219 C 24.191406 15.449219 24.382812 15.480469 24.542969 15.5625 C 24.703125 15.644531 24.832031 15.742188 24.925781 15.886719 C 25.007812 16.015625 25.054688 16.191406 25.054688 16.371094 C 25.054688 16.566406 25.007812 16.726562 24.925781 16.855469 C 24.832031 16.984375 24.703125 17.097656 24.542969 17.164062 L 25.101562 17.972656 Z M 24.335938 16.03125 C 24.238281 15.949219 24.113281 15.917969 23.9375 15.917969 L 23.457031 15.917969 L 23.457031 16.808594 L 23.9375 16.808594 C 24.113281 16.808594 24.238281 16.773438 24.335938 16.695312 C 24.429688 16.613281 24.464844 16.515625 24.464844 16.371094 C 24.480469 16.210938 24.429688 16.113281 24.335938 16.03125 Z M 24.335938 16.03125 "/>
<path style=" stroke:none;fill-rule:nonzero;fill:rgb(100%,100%,100%);fill-opacity:1;" d="M 27.5625 17.503906 L 27.5625 17.972656 L 25.628906 17.972656 L 25.628906 15.433594 L 27.511719 15.433594 L 27.511719 15.902344 L 26.203125 15.902344 L 26.203125 16.453125 L 27.351562 16.453125 L 27.351562 16.921875 L 26.203125 16.921875 L 26.203125 17.503906 Z M 27.5625 17.503906 "/>
<path style=" stroke:none;fill-rule:nonzero;fill:rgb(100%,100%,100%);fill-opacity:1;" d="M 14.082031 22.109375 L 12.917969 22.109375 L 12.695312 22.660156 L 12.105469 22.660156 L 13.222656 20.136719 L 13.796875 20.136719 L 14.914062 22.660156 L 14.308594 22.660156 Z M 13.90625 21.671875 L 13.507812 20.703125 L 13.109375 21.671875 Z M 13.90625 21.671875 "/>
<path style=" stroke:none;fill-rule:nonzero;fill:rgb(100%,100%,100%);fill-opacity:1;" d="M 15.746094 22.53125 C 15.535156 22.417969 15.378906 22.253906 15.265625 22.0625 C 15.152344 21.867188 15.089844 21.640625 15.089844 21.382812 C 15.089844 21.140625 15.152344 20.914062 15.265625 20.703125 C 15.378906 20.507812 15.554688 20.347656 15.746094 20.234375 C 15.953125 20.121094 16.175781 20.074219 16.429688 20.074219 C 16.65625 20.074219 16.847656 20.105469 17.023438 20.1875 C 17.199219 20.265625 17.339844 20.378906 17.46875 20.523438 L 17.101562 20.863281 C 16.925781 20.671875 16.71875 20.574219 16.480469 20.574219 C 16.320312 20.574219 16.191406 20.605469 16.0625 20.671875 C 15.9375 20.734375 15.839844 20.832031 15.777344 20.960938 C 15.710938 21.089844 15.679688 21.21875 15.679688 21.382812 C 15.679688 21.542969 15.710938 21.671875 15.777344 21.800781 C 15.839844 21.933594 15.9375 22.027344 16.0625 22.09375 C 16.191406 22.15625 16.320312 22.191406 16.480469 22.191406 C 16.734375 22.191406 16.941406 22.09375 17.101562 21.882812 L 17.46875 22.222656 C 17.355469 22.367188 17.199219 22.480469 17.023438 22.5625 C 16.847656 22.644531 16.65625 22.675781 16.429688 22.675781 C 16.191406 22.691406 15.953125 22.644531 15.746094 22.53125 Z M 15.746094 22.53125 "/>
<path style=" stroke:none;fill-rule:nonzero;fill:rgb(100%,100%,100%);fill-opacity:1;" d="M 19.5625 22.109375 L 18.394531 22.109375 L 18.171875 22.660156 L 17.582031 22.660156 L 18.699219 20.136719 L 19.273438 20.136719 L 20.390625 22.660156 L 19.785156 22.660156 Z M 19.386719 21.671875 L 18.984375 20.703125 L 18.585938 21.671875 Z M 19.386719 21.671875 "/>
<path style=" stroke:none;fill-rule:nonzero;fill:rgb(100%,100%,100%);fill-opacity:1;" d="M 20.757812 20.121094 L 21.890625 20.121094 C 22.164062 20.121094 22.402344 20.167969 22.609375 20.28125 C 22.820312 20.378906 22.976562 20.542969 23.089844 20.71875 C 23.203125 20.914062 23.265625 21.125 23.265625 21.382812 C 23.265625 21.640625 23.203125 21.851562 23.089844 22.042969 C 22.976562 22.238281 22.820312 22.382812 22.609375 22.480469 C 22.402344 22.578125 22.164062 22.644531 21.890625 22.644531 L 20.757812 22.644531 Z M 21.859375 22.175781 C 22.117188 22.175781 22.308594 22.109375 22.449219 21.964844 C 22.59375 21.820312 22.675781 21.625 22.675781 21.398438 C 22.675781 21.15625 22.59375 20.960938 22.449219 20.832031 C 22.308594 20.6875 22.101562 20.621094 21.859375 20.621094 L 21.332031 20.621094 L 21.332031 22.191406 L 21.859375 22.191406 Z M 21.859375 22.175781 "/>
<path style=" stroke:none;fill-rule:nonzero;fill:rgb(100%,100%,100%);fill-opacity:1;" d="M 25.742188 22.191406 L 25.742188 22.660156 L 23.808594 22.660156 L 23.808594 20.121094 L 25.691406 20.121094 L 25.691406 20.589844 L 24.382812 20.589844 L 24.382812 21.140625 L 25.550781 21.140625 L 25.550781 21.59375 L 24.382812 21.59375 L 24.382812 22.191406 Z M 25.742188 22.191406 "/>
<path style=" stroke:none;fill-rule:nonzero;fill:rgb(100%,100%,100%);fill-opacity:1;" d="M 28.582031 22.660156 L 28.582031 21.140625 L 27.847656 22.382812 L 27.59375 22.382812 L 26.859375 21.171875 L 26.859375 22.660156 L 26.316406 22.660156 L 26.316406 20.121094 L 26.792969 20.121094 L 27.71875 21.6875 L 28.648438 20.121094 L 29.125 20.121094 L 29.125 22.660156 Z M 28.582031 22.660156 "/>
<path style=" stroke:none;fill-rule:nonzero;fill:rgb(100%,100%,100%);fill-opacity:1;" d="M 31.027344 21.753906 L 31.027344 22.660156 L 30.449219 22.660156 L 30.449219 21.753906 L 29.476562 20.121094 L 30.101562 20.121094 L 30.769531 21.253906 L 31.425781 20.121094 L 32 20.121094 Z M 31.027344 21.753906 "/>
</g>
</svg>
